<svg width="393" height="355" viewBox="0 0 393 355" fill="none" xmlns="http://www.w3.org/2000/svg">
<path fill-rule="evenodd" clip-rule="evenodd" d="M243.808 19.3293C245.876 21.1038 254.788 27.3548 257.667 25.8348C261.218 23.9584 255.595 18.3063 254.081 16.9128C252.154 15.14 245.27 9.77681 242.634 10.2747C237.365 11.2704 241.947 17.7321 243.808 19.3293Z" fill="black"/>
<path fill-rule="evenodd" clip-rule="evenodd" d="M248.21 83.4841C249.378 81.1871 252.486 80.3426 253.923 78.1198C255.651 75.4476 256.445 73.1092 255.808 69.8323C251.383 71.3202 246.349 75.8237 243.389 79.3455C240.914 82.2886 237.399 88.4387 243.857 88.4542C243.8 87.5787 243.744 86.7023 243.687 85.8277C245.624 86.1089 247.33 85.2153 248.21 83.4841Z" fill="black"/>
<path fill-rule="evenodd" clip-rule="evenodd" d="M227.131 45.2677C229.983 46.0868 232.337 45.9708 235.252 46.0349C237.367 46.0819 240.257 47.2432 241.971 45.9343C240.45 45.0544 242.372 45.0058 241.996 44.1478C241.68 43.4325 241.079 43.6669 240.591 43.0879C238.85 41.0248 237.336 41.0499 234.575 40.6209C232.435 40.2868 229.29 39.5164 227.234 40.5788C225.071 41.6971 224.234 44.4357 227.131 45.2677Z" fill="black"/>
<path fill-rule="evenodd" clip-rule="evenodd" d="M267.736 108.546C269.581 107.001 271.592 102.525 271.965 100.216C272.111 99.3118 271.459 98.6186 271.536 97.9527C271.686 96.6841 274.296 94.2311 271.562 93.19C269.17 92.2786 266.922 99.3587 266.314 100.904C265.69 102.484 263.992 105.561 264.514 107.09C264.946 108.358 266.491 109.589 267.736 108.546Z" fill="black"/>
<path fill-rule="evenodd" clip-rule="evenodd" d="M289.806 12.721C291.475 11.1734 292.532 9.41823 292.359 7.29003C292.222 5.61358 290.965 -0.166299 289.55 0.00367151C284.854 0.569941 286.966 15.3565 289.806 12.721Z" fill="black"/>
<path fill-rule="evenodd" clip-rule="evenodd" d="M298.511 48.8472C297.351 47.1709 294.919 44.4734 292.827 46.1547C290.972 47.6456 291.295 51.3255 292.007 53.1541C293.921 58.077 298.444 62.4626 303.562 59.6263C301.784 56.0682 300.782 52.1285 298.511 48.8472Z" fill="black"/>
<path fill-rule="evenodd" clip-rule="evenodd" d="M132.311 296.026C128.575 300.379 115.417 319.14 118.616 325.199C122.566 332.676 134.464 320.839 137.398 317.652C141.13 313.596 152.419 299.103 151.371 293.554C149.275 282.464 135.673 292.109 132.311 296.026Z" fill="black"/>
<path fill-rule="evenodd" clip-rule="evenodd" d="M77.7093 260.92C75.9851 266.925 76.2292 271.88 76.0943 278.016C75.9953 282.468 73.5507 288.552 76.306 292.16C78.1582 288.957 78.2607 293.004 80.0668 292.211C81.5724 291.546 81.0791 290.281 82.298 289.254C86.6409 285.589 86.5879 282.402 87.491 276.591C88.1943 272.087 89.8161 265.464 87.5798 261.137C85.2257 256.584 79.4608 254.821 77.7093 260.92Z" fill="black"/>
<path fill-rule="evenodd" clip-rule="evenodd" d="M299.662 293.36C302.919 296.874 306.614 299.097 311.094 298.733C314.623 298.445 326.79 295.799 326.432 292.821C325.24 282.936 294.114 287.38 299.662 293.36Z" fill="black"/>
<path d="M86 189.756C237.5 96.5 130 115.5 80.9534 131.5" stroke="#F4C702" stroke-width="40" stroke-linecap="round"/>
<path d="M68 229.5C121 231 277 156.327 83.9749 190.109" stroke="#F4C702" stroke-width="40" stroke-linecap="round"/>
<path fill-rule="evenodd" clip-rule="evenodd" d="M218.4 152.329C216.998 147.219 211.901 115.975 203.09 118.104C196.395 119.722 203.349 147.216 203.661 150.834C204.313 158.402 189.703 158.154 182.914 157.132C172.146 155.511 173.01 149.229 171.4 139.482C170.794 135.798 168.463 119.151 160.747 125.249C155.535 129.368 159.261 149.897 159.695 154.58C161.2 170.801 162.966 198.503 172.651 213.234C176.512 219.109 179.986 222.009 184.044 214.476C188.148 206.851 178.857 183.611 177.23 175.811C184.896 176.557 206.96 174.081 211.577 182.009C215.793 189.245 209.048 209.921 222.576 211.598C230.6 212.595 229.146 203.337 228.375 196.22C226.755 181.288 222.354 166.754 218.4 152.329Z" fill="black"/>
<path fill-rule="evenodd" clip-rule="evenodd" d="M238.235 145.167C229.225 149.123 240.538 206.816 253.72 204.956C269.105 202.781 246.821 141.395 238.235 145.167Z" fill="black"/>
<path fill-rule="evenodd" clip-rule="evenodd" d="M229.051 125.728C227.95 138.719 245.167 143.562 245.982 129.445C246.61 118.552 230.211 112.073 229.051 125.728Z" fill="black"/>
<path d="M-44 237C-44 237.039 -44 245.248 -43.9421 258.217C-43.9158 264.12 -43.2871 265.914 -42.4316 267.019C-39.9294 270.253 -29.8758 267.651 -21.8927 265.101C-13.3477 262.372 -7.831 257.823 -6.13165 257.318C-4.6157 256.868 -4.32006 263.995 -3.00162 273.69C-1.47786 284.895 1.65717 291.699 2.66359 293.461C3.42736 294.799 4.8448 295.516 6.60879 295.985C10.8974 297.127 16.6767 295.606 23.3116 293.279C27.8753 291.678 34.4497 288.137 39.1412 285.642C43.8327 283.147 46.335 281.529 47.7822 281.062C49.4798 280.514 49.8245 289.071 49.8648 300.49C49.8967 309.505 52.7611 313.642 55.64 316.467C57.0399 317.841 61.7199 317.89 68.0117 317.876C70.9204 317.869 73.2302 317.176 81.1254 313.212C89.0207 309.247 102.426 301.856 110.548 297.052C118.671 292.247 121.104 290.253 123.612 288.198" stroke="#FA4914" stroke-width="10" stroke-linecap="round"/>
<path d="M334.308 293.478C342.362 299.981 363.38 300.215 381.669 295.773C394.678 292.613 413.603 283.339 424.203 277.942C426.349 262.944 422.224 227.918 414.719 209.084C408.689 193.955 409.088 173.626 403.048 154.75C395.682 131.731 391.048 117.988 385.944 113.084C383.542 110.777 380.393 109.372 376.901 109.716C373.506 110.05 369.524 110.041 366.643 112.797C358.357 120.72 350.455 128.918 347.083 141.961C341.14 164.948 343.127 175.934 335.784 188.535C324.581 207.762 317.683 212.168 313.127 217.729C308.167 223.783 301.527 232.101 304.935 246.343C309.153 263.969 316.38 279 334.308 293.478Z" fill="#D9D9D9"/>
<path d="M72.1604 44.946C73.1336 41.1594 73.3364 35.5154 73.3364 33.4932C73.8298 33.3792 74.5 43 80.5 46C86.0224 48.7612 91.1478 39.5689 90.876 40.4113C90.6324 41.166 88.9245 42.7207 90.5503 53.148C91.6144 59.9724 91.9279 61.9449 95.2792 65.7096C99.8705 70.8674 103.113 74.1941 102.965 74.0705C102.515 73.6948 101.315 72.7531 98.2541 70.9858C95.1933 69.2185 90.4168 66.7018 85.8755 64.8162C81.3342 62.9306 77.1868 61.4204 72.5632 61.0627C63.1149 60.3318 56.1266 61.1319 56.8275 60.7916C58.8949 59.7878 63.1875 57.927 67.6124 52.1445C69.9225 49.1257 71.681 46.8115 72.1604 44.946Z" fill="#F4C702"/>
<path d="M232.381 325.454C233.354 321.667 232.991 312.06 233.557 314.001C239 332.652 263.334 354.702 263.186 354.578C262.736 354.203 261.536 353.261 258.475 351.494C255.414 349.726 250.638 347.21 246.096 345.324C241.555 343.438 237.408 341.928 232.784 341.571C223.336 340.84 216.348 341.64 217.048 341.299C219.116 340.296 223.408 338.435 227.833 332.652C230.143 329.634 231.902 327.319 232.381 325.454Z" fill="#FA4914"/>
<path d="M318.463 123.435C321.904 117.152 327.724 107.588 332.046 101.207C336.368 94.8251 339.014 91.915 341.928 88.896" stroke="#FA4914" stroke-width="10" stroke-linecap="round"/>
<path d="M324.27 141.387C325.682 139.243 328.144 135.905 331.457 131.682" stroke="#FA4914" stroke-width="10" stroke-linecap="round"/>
<path d="M322.879 159.683C340.704 148.656 358.528 137.629 370.471 130.167" stroke="#FA4914" stroke-width="10" stroke-linecap="round"/>
</svg>
