<svg width="74" height="74" viewBox="0 0 74 74" fill="none" xmlns="http://www.w3.org/2000/svg">
<rect x="1" y="1" width="72" height="72" rx="32" fill="#F3F4F6"/>
<rect x="1" y="1" width="72" height="72" rx="32" stroke="#5C5C5C" stroke-width="2" stroke-dasharray="4 4"/>
<path d="M50.5 45.5556C50.5 46.2039 50.2414 46.8256 49.7811 47.284C49.3208 47.7425 48.6964 48 48.0455 48H25.9545C25.3036 48 24.6792 47.7425 24.2189 47.284C23.7586 46.8256 23.5 46.2039 23.5 45.5556V32.1111C23.5 31.4628 23.7586 30.8411 24.2189 30.3826C24.6792 29.9242 25.3036 29.6667 25.9545 29.6667H30.8636L33.3182 26H40.6818L43.1364 29.6667H48.0455C48.6964 29.6667 49.3208 29.9242 49.7811 30.3826C50.2414 30.8411 50.5 31.4628 50.5 32.1111V45.5556Z" fill="#D9D9D9"/>
<path d="M37 43.1111C39.7112 43.1111 41.9091 40.9223 41.9091 38.2222C41.9091 35.5222 39.7112 33.3333 37 33.3333C34.2888 33.3333 32.0909 35.5222 32.0909 38.2222C32.0909 40.9223 34.2888 43.1111 37 43.1111Z" fill="white"/>
<path d="M50.5 45.5556C50.5 46.2039 50.2414 46.8256 49.7811 47.284C49.3208 47.7425 48.6964 48 48.0455 48H25.9545C25.3036 48 24.6792 47.7425 24.2189 47.284C23.7586 46.8256 23.5 46.2039 23.5 45.5556V32.1111C23.5 31.4628 23.7586 30.8411 24.2189 30.3826C24.6792 29.9242 25.3036 29.6667 25.9545 29.6667H30.8636L33.3182 26H40.6818L43.1364 29.6667H48.0455C48.6964 29.6667 49.3208 29.9242 49.7811 30.3826C50.2414 30.8411 50.5 31.4628 50.5 32.1111V45.5556Z" stroke="#5C5C5C" stroke-width="2" stroke-linecap="round" stroke-linejoin="round"/>
<path d="M37 43.1111C39.7112 43.1111 41.9091 40.9223 41.9091 38.2222C41.9091 35.5222 39.7112 33.3333 37 33.3333C34.2888 33.3333 32.0909 35.5222 32.0909 38.2222C32.0909 40.9223 34.2888 43.1111 37 43.1111Z" stroke="#5C5C5C" stroke-width="2" stroke-linecap="round" stroke-linejoin="round"/>
</svg>
