<svg width="15" height="15" viewBox="0 0 15 15" fill="none" xmlns="http://www.w3.org/2000/svg">
<path d="M8.5 5.16667V2.5C8.5 1.96957 8.28929 1.46086 7.91421 1.08579C7.53914 0.710714 7.03043 0.5 6.5 0.5L3.83333 6.5V13.8333H11.3533C11.6749 13.837 11.9869 13.7243 12.2319 13.516C12.477 13.3077 12.6385 13.0179 12.6867 12.7L13.6067 6.7C13.6357 6.5089 13.6228 6.31379 13.5689 6.12817C13.515 5.94255 13.4214 5.77086 13.2946 5.62501C13.1677 5.47916 13.0107 5.36262 12.8344 5.28348C12.658 5.20434 12.4666 5.16448 12.2733 5.16667H8.5Z" fill="#D9D9D9"/>
<path d="M3.83333 6.5L6.5 0.5C7.03043 0.5 7.53914 0.710714 7.91421 1.08579C8.28929 1.46086 8.5 1.96957 8.5 2.5V5.16667H12.2733C12.4666 5.16448 12.658 5.20434 12.8344 5.28348C13.0107 5.36262 13.1677 5.47916 13.2946 5.62501C13.4214 5.77086 13.515 5.94255 13.5689 6.12817C13.6228 6.31379 13.6357 6.5089 13.6067 6.7L12.6867 12.7C12.6385 13.0179 12.477 13.3077 12.2319 13.516C11.9869 13.7243 11.6749 13.837 11.3533 13.8333H3.83333M3.83333 6.5V13.8333M3.83333 6.5H1.83333C1.47971 6.5 1.14057 6.64048 0.890524 6.89052C0.640476 7.14057 0.5 7.47971 0.5 7.83333V12.5C0.5 12.8536 0.640476 13.1928 0.890524 13.4428C1.14057 13.6929 1.47971 13.8333 1.83333 13.8333H3.83333" stroke="#5C5C5C" stroke-linecap="round" stroke-linejoin="round"/>
</svg>
