<svg width="16" height="16" viewBox="0 0 16 16" fill="none" xmlns="http://www.w3.org/2000/svg">
<path d="M9.33301 6.00004V3.33337C9.33301 2.80294 9.12229 2.29423 8.74722 1.91916C8.37215 1.54409 7.86344 1.33337 7.33301 1.33337L4.66634 7.33337V14.6667H12.1863C12.5079 14.6703 12.8199 14.5576 13.0649 14.3494C13.31 14.1411 13.4715 13.8513 13.5197 13.5334L14.4397 7.53337C14.4687 7.34228 14.4558 7.14716 14.4019 6.96154C14.348 6.77592 14.2544 6.60424 14.1276 6.45838C14.0008 6.31253 13.8437 6.19599 13.6674 6.11685C13.4911 6.03771 13.2996 5.99785 13.1063 6.00004H9.33301Z" fill="#D2EAFF"/>
<path d="M4.66634 14.6667V7.33337H2.66634C2.31272 7.33337 1.97358 7.47385 1.72353 7.7239C1.47348 7.97395 1.33301 8.31309 1.33301 8.66671V13.3334C1.33301 13.687 1.47348 14.0261 1.72353 14.2762C1.97358 14.5262 2.31272 14.6667 2.66634 14.6667H4.66634Z" fill="#2B8DFF"/>
<path d="M4.66634 7.33337L7.33301 1.33337C7.86344 1.33337 8.37215 1.54409 8.74722 1.91916C9.12229 2.29423 9.33301 2.80294 9.33301 3.33337V6.00004H13.1063C13.2996 5.99785 13.4911 6.03771 13.6674 6.11685C13.8437 6.19599 14.0008 6.31253 14.1276 6.45838C14.2544 6.60424 14.348 6.77592 14.4019 6.96154C14.4558 7.14716 14.4687 7.34228 14.4397 7.53337L13.5197 13.5334C13.4715 13.8513 13.31 14.1411 13.0649 14.3494C12.8199 14.5576 12.5079 14.6703 12.1863 14.6667H4.66634M4.66634 7.33337V14.6667M4.66634 7.33337H2.66634C2.31272 7.33337 1.97358 7.47385 1.72353 7.7239C1.47348 7.97395 1.33301 8.31309 1.33301 8.66671V13.3334C1.33301 13.687 1.47348 14.0261 1.72353 14.2762C1.97358 14.5262 2.31272 14.6667 2.66634 14.6667H4.66634" stroke="#2B8DFF" stroke-linecap="round" stroke-linejoin="round"/>
</svg>
