<svg width="52" height="52" viewBox="0 0 52 52" fill="none" xmlns="http://www.w3.org/2000/svg">
<g filter="url(#filter0_d_720_282)">
<rect x="4" y="2" width="44" height="44" rx="22" fill="#2B8DFF" shape-rendering="crispEdges"/>
<path d="M26 13C25.2044 13 24.4413 13.3161 23.8787 13.8787C23.3161 14.4413 23 15.2044 23 16V24C23 24.7956 23.3161 25.5587 23.8787 26.1213C24.4413 26.6839 25.2044 27 26 27C26.7956 27 27.5587 26.6839 28.1213 26.1213C28.6839 25.5587 29 24.7956 29 24V16C29 15.2044 28.6839 14.4413 28.1213 13.8787C27.5587 13.3161 26.7956 13 26 13Z" fill="#98C5F9" stroke="white" stroke-width="2" stroke-linecap="round" stroke-linejoin="round"/>
<path d="M33 22V24C33 25.8565 32.2625 27.637 30.9497 28.9497C29.637 30.2625 27.8565 31 26 31C24.1435 31 22.363 30.2625 21.0503 28.9497C19.7375 27.637 19 25.8565 19 24V22" stroke="white" stroke-width="2" stroke-linecap="round" stroke-linejoin="round"/>
<path d="M26 31V35" stroke="white" stroke-width="2" stroke-linecap="round" stroke-linejoin="round"/>
<path d="M22 35H30" stroke="white" stroke-width="2" stroke-linecap="round" stroke-linejoin="round"/>
</g>
<defs>
<filter id="filter0_d_720_282" x="0" y="0" width="52" height="52" filterUnits="userSpaceOnUse" color-interpolation-filters="sRGB">
<feFlood flood-opacity="0" result="BackgroundImageFix"/>
<feColorMatrix in="SourceAlpha" type="matrix" values="0 0 0 0 0 0 0 0 0 0 0 0 0 0 0 0 0 0 127 0" result="hardAlpha"/>
<feOffset dy="2"/>
<feGaussianBlur stdDeviation="2"/>
<feComposite in2="hardAlpha" operator="out"/>
<feColorMatrix type="matrix" values="0 0 0 0 0 0 0 0 0 0.254644 0 0 0 0 0.552941 0 0 0 0.2 0"/>
<feBlend mode="normal" in2="BackgroundImageFix" result="effect1_dropShadow_720_282"/>
<feBlend mode="normal" in="SourceGraphic" in2="effect1_dropShadow_720_282" result="shape"/>
</filter>
</defs>
</svg>
